<?xml version="1.0" encoding="UTF-8"?>
<svg version="1.1" xmlns="http://www.w3.org/2000/svg" width="623" height="621">
<path d="M0 0 C205.59 0 411.18 0 623 0 C623 204.93 623 409.86 623 621 C417.41 621 211.82 621 0 621 C0 416.07 0 211.14 0 0 Z " fill="#F1F1F1" transform="translate(0,0)"/>
<path d="M0 0 C153.78 0 307.56 0 466 0 C466 111.21 466 222.42 466 337 C312.22 337 158.44 337 0 337 C0 225.79 0 114.58 0 0 Z " fill="#EFEFF0" transform="translate(78,133)"/>
<path d="M0 0 C11.55 0 23.1 0 35 0 C38.38096328 10.14288983 38.38096328 10.14288983 38.3984375 13.83203125 C38.40456055 14.64446289 38.41068359 15.45689453 38.41699219 16.29394531 C38.39620605 17.54062988 38.39620605 17.54062988 38.375 18.8125 C38.36194824 20.12299316 38.36194824 20.12299316 38.34863281 21.45996094 C38.02644379 35.72606852 33.67221878 47.46353353 24 58 C9.33134233 71.32442377 -5.76300238 75.44280835 -25.25 75.5625 C-27.13150757 75.58425293 -27.13150757 75.58425293 -29.05102539 75.60644531 C-40.4659807 75.48340537 -50.41405744 72.7043415 -60.5 67.4375 C-61.6240625 66.85871094 -62.748125 66.27992188 -63.90625 65.68359375 C-65.87884854 64.61012156 -67.82498747 63.48541554 -69.73046875 62.296875 C-72.36407333 60.7919581 -74.01511471 60.74415269 -77 61 C-79.20536179 65.0271824 -80.45660208 68.43545749 -81 73 C-83.31 73 -85.62 73 -88 73 C-87.67 49.57 -87.34 26.14 -87 2 C-84.69 2 -82.38 2 -80 2 C-79.87882813 2.79921875 -79.75765625 3.5984375 -79.6328125 4.421875 C-79.27942822 6.73790118 -78.91956812 9.05294468 -78.5546875 11.3671875 C-78.21737398 13.57635351 -77.90361807 15.78951152 -77.6328125 18.0078125 C-75.70788309 32.42514097 -68.99985264 49.06856572 -58 59 C-44.77097994 68.22409933 -30.65068205 69.73014347 -14.88671875 67.57421875 C-6.53646905 65.40342018 0.75698581 60.51924303 5.4375 53.25 C10.98993824 42.79002427 13.12447802 30.7979796 10.30859375 19.13671875 C8.36996376 13.92107405 5.50196793 9.41920083 2.26953125 4.91015625 C1 3 1 3 0 0 Z " fill="#070707" transform="translate(256,323)"/>
<path d="M0 0 C11.55 0 23.1 0 35 0 C38.38327745 10.14983236 38.38327745 10.14983236 38.43359375 14.26953125 C38.44495361 15.17227783 38.45631348 16.07502441 38.46801758 17.00512695 C38.45794678 17.93156006 38.44787598 18.85799316 38.4375 19.8125 C38.43065186 20.78082764 38.42380371 21.74915527 38.41674805 22.74682617 C38.2523791 30.08309855 37.22420805 36.34016042 34 43 C33.63777344 43.79148437 33.27554688 44.58296875 32.90234375 45.3984375 C25.98048033 59.14830857 14.55497626 66.55051573 0.53125 71.95703125 C-21.16728997 78.36578144 -43.53337302 76.450485 -63.37109375 65.9375 C-64.29317627 65.45023438 -64.29317627 65.45023438 -65.23388672 64.953125 C-66.89112026 64.05875954 -68.52660386 63.12442004 -70.16015625 62.1875 C-73.28099039 60.57153278 -73.28099039 60.57153278 -78 62 C-78.99 65.63 -79.98 69.26 -81 73 C-83.31 73 -85.62 73 -88 73 C-88.09015365 57.78657154 -87.80542796 42.58490255 -87.5 27.375 C-87.45166299 24.90364896 -87.40348481 22.4322948 -87.35546875 19.9609375 C-87.23880694 13.97392129 -87.12019691 7.98694623 -87 2 C-84.69 2 -82.38 2 -80 2 C-79.91024902 2.67877197 -79.82049805 3.35754395 -79.72802734 4.05688477 C-77.90869665 17.44131323 -76.0343072 29.82138521 -70 42 C-69.5875 42.86496094 -69.175 43.72992188 -68.75 44.62109375 C-63.14632074 55.55195494 -54.68777041 63.0115917 -43 67 C-30.81651146 69.29283364 -16.24752601 70.41023965 -5.375 63.75390625 C2.77253203 57.73706105 9.29109549 49.30976459 11 39 C11.86115289 25.41919537 10.34186588 16.17055215 2.26953125 4.91015625 C1 3 1 3 0 0 Z " fill="#040404" transform="translate(418,323)"/>
<path d="M0 0 C4.17569767 2.6200456 6.75290912 3.26049011 11.625 2.625 C14.03750727 -2.7349996 14.03750727 -2.7349996 15.625 -8.375 C17.935 -8.375 20.245 -8.375 22.625 -8.375 C22.295 11.425 21.965 31.225 21.625 51.625 C19.315 51.625 17.005 51.625 14.625 51.625 C14.26148438 49.75908203 14.26148438 49.75908203 13.890625 47.85546875 C11.2435355 34.57327648 8.19613609 23.04410361 0.625 11.625 C0.0475 10.738125 -0.53 9.85125 -1.125 8.9375 C-9.7204154 0.10332306 -20.14306202 -4.49002294 -32.4375 -4.8125 C-42.39469505 -4.49378184 -52.12930139 -2.40579103 -59.47265625 4.63671875 C-66.96991653 12.65103146 -69.68553741 20.06997474 -69.5234375 31.01171875 C-68.92467407 41.55310642 -64.48068044 49.94318331 -57.375 57.625 C-56.385 58.12 -56.385 58.12 -55.375 58.625 C-55.375 59.285 -55.375 59.945 -55.375 60.625 C-54.81941406 60.88410156 -54.26382813 61.14320313 -53.69140625 61.41015625 C-51.07657047 62.78151194 -48.72963645 64.36722331 -46.3125 66.0625 C-45.02666016 66.95775391 -45.02666016 66.95775391 -43.71484375 67.87109375 C-41.73496032 69.35517999 -40.09315452 70.86036699 -38.375 72.625 C-44.53111444 72.87270796 -50.68431698 73.05387371 -56.84423828 73.17431641 C-58.93785123 73.22452684 -61.03111482 73.29271462 -63.12353516 73.37939453 C-80.48354643 74.08039261 -80.48354643 74.08039261 -85.02880859 70.58300781 C-86.65770836 67.93909769 -87.57118849 65.61562693 -88.375 62.625 C-88.85710937 61.5009375 -89.33921875 60.376875 -89.8359375 59.21875 C-94.30580778 44.08995829 -94.11285073 28.89259289 -86.8671875 14.6640625 C-78.41189376 0.30972661 -66.04545955 -6.23410136 -50.375 -10.375 C-32.56654144 -14.72060472 -15.02210588 -9.60504345 0 0 Z " fill="#030303" transform="translate(423.375,192.375)"/>
<path d="M0 0 C1.75183594 -0.02416992 1.75183594 -0.02416992 3.5390625 -0.04882812 C12.70963358 -0.05396858 20.52716491 1.39864664 28.6875 5.6875 C29.50992188 6.11289063 30.33234375 6.53828125 31.1796875 6.9765625 C32.80280649 7.86331441 34.41267966 8.77477757 36.0078125 9.7109375 C40.67537786 12.4481877 44.19810876 13.96610269 49.625 14.3125 C50.615 10.3525 51.605 6.3925 52.625 2.3125 C54.935 2.3125 57.245 2.3125 59.625 2.3125 C59.70995284 15.31972442 59.44095112 28.3097332 59.125 41.3125 C59.07665127 43.35937095 59.02847309 45.40624594 58.98046875 47.453125 C58.86394035 52.40629861 58.74512132 57.35941228 58.625 62.3125 C56.315 62.3125 54.005 62.3125 51.625 62.3125 C51.44324219 61.27351563 51.26148438 60.23453125 51.07421875 59.1640625 C48.09507267 42.4720233 44.15119627 24.58130758 29.5 14.0625 C17.72717269 6.94312132 6.7633491 4.58682356 -6.86328125 6.90625 C-15.80553779 9.17596494 -22.71166643 13.76878511 -27.84375 21.53515625 C-32.55961299 30.54582303 -32.78802535 41.79261672 -30.65625 51.62890625 C-26.27438567 64.33277904 -17.45797003 71.42158764 -6.57421875 78.734375 C-4.6147151 80.14048419 -3.04882084 81.59099281 -1.375 83.3125 C-7.53111444 83.56020796 -13.68431698 83.74137371 -19.84423828 83.86181641 C-21.93785123 83.91202684 -24.03111482 83.98021462 -26.12353516 84.06689453 C-43.48354643 84.76789261 -43.48354643 84.76789261 -48.02880859 81.27050781 C-49.65770836 78.62659769 -50.57118849 76.30312693 -51.375 73.3125 C-51.85710937 72.1884375 -52.33921875 71.064375 -52.8359375 69.90625 C-57.24207017 54.99318557 -57.04601976 40.46609909 -50.375 26.3125 C-42.97297715 13.31382573 -31.9367751 5.6719932 -17.875 1.19921875 C-11.99391738 -0.20282026 -6.01228259 -0.01648104 0 0 Z " fill="#070707" transform="translate(224.375,181.6875)"/>
<path d="M0 0 C4.17569767 2.6200456 6.75290912 3.26049011 11.625 2.625 C14.03750727 -2.7349996 14.03750727 -2.7349996 15.625 -8.375 C17.935 -8.375 20.245 -8.375 22.625 -8.375 C22.295 11.425 21.965 31.225 21.625 51.625 C19.315 51.625 17.005 51.625 14.625 51.625 C14.26148438 49.75908203 14.26148438 49.75908203 13.890625 47.85546875 C11.2435355 34.57327648 8.19613609 23.04410361 0.625 11.625 C0.0475 10.738125 -0.53 9.85125 -1.125 8.9375 C-9.7204154 0.10332306 -20.14306202 -4.49002294 -32.4375 -4.8125 C-44.90768662 -4.41334392 -54.08474014 -0.53230134 -63.375 7.625 C-63.705 6.305 -64.035 4.985 -64.375 3.625 C-65.035 3.625 -65.695 3.625 -66.375 3.625 C-66.49875 2.655625 -66.6225 1.68625 -66.75 0.6875 C-66.95625 -0.323125 -67.1625 -1.33375 -67.375 -2.375 C-68.035 -2.705 -68.695 -3.035 -69.375 -3.375 C-46.06750711 -15.19222586 -21.95842436 -14.04008346 0 0 Z " fill="#070707" transform="translate(423.375,192.375)"/>
<path d="M0 0 C2.44814474 0.97925789 3.78992486 2.32187432 5.58203125 4.21875 C11.55309899 10.37868363 17.81978864 15.50894882 25.1875 19.875 C25.1875 20.205 25.1875 20.535 25.1875 20.875 C18.99457301 21.02331992 12.80267931 21.1322042 6.60839844 21.20458984 C4.50144443 21.23476335 2.39461604 21.2757083 0.28808594 21.32763672 C-2.74054934 21.40042673 -5.7675247 21.43445024 -8.796875 21.4609375 C-10.20957672 21.50738907 -10.20957672 21.50738907 -11.65081787 21.55477905 C-18.06374639 21.55807932 -18.06374639 21.55807932 -20.32043457 19.49932861 C-21.43847656 17.83837891 -21.43847656 17.83837891 -22.8125 14.875 C-21.46256266 11.66635497 -20.24820094 10.18796479 -17.25 8.4375 C-16.54488281 8.02113281 -15.83976563 7.60476562 -15.11328125 7.17578125 C-14.35402344 6.74652344 -13.59476563 6.31726563 -12.8125 5.875 C-12.00167969 5.41480469 -11.19085938 4.95460937 -10.35546875 4.48046875 C-2.10407818 -0.14510884 -2.10407818 -0.14510884 0 0 Z " fill="#020202" transform="translate(197.8125,244.125)"/>
<path d="M0 0 C2.99540063 1.99693375 4.49113042 3.45112821 5.625 6.90234375 C6.51862481 11.75212005 5.71072214 14.78332112 3 19 C2.34 19.66 1.68 20.32 1 21 C2.65 21.66 4.3 22.32 6 23 C5.67 23.66 5.34 24.32 5 25 C-8.05292784 22.55659479 -8.05292784 22.55659479 -12.8515625 17.875 C-15.14714952 14.12710282 -14.78274521 10.1932779 -14 6 C-11.05100692 -0.56821187 -6.7205066 -0.99820996 0 0 Z " fill="#E8E8E8" transform="translate(477,283)"/>
<path d="M0 0 C10.93426208 -0.4806269 10.93426208 -0.4806269 15.1875 1.4375 C17.81078306 5.14627949 18.28072326 8.50062999 18 13 C16.50831386 17.10213689 15.64397687 18.57068209 12 21 C7.98500069 21.26874159 4.02862593 21.08663712 0 21 C0 14.07 0 7.14 0 0 Z " fill="#E9E9E9" transform="translate(419,283)"/>
<path d="M0 0 C10.93426208 -0.4806269 10.93426208 -0.4806269 15.1875 1.4375 C17.81078306 5.14627949 18.28072326 8.50062999 18 13 C16.50831386 17.10213689 15.64397687 18.57068209 12 21 C7.98500069 21.26874159 4.02862593 21.08663712 0 21 C0 14.07 0 7.14 0 0 Z " fill="#E7E7E7" transform="translate(389,283)"/>
<path d="M0 0 C0 0.33 0 0.66 0 1 C-4.62 1.33 -9.24 1.66 -14 2 C-14.33 3.32 -14.66 4.64 -15 6 C-13.02 6 -11.04 6 -9 6 C-9 6.33 -9 6.66 -9 7 C-9.71285156 7.17015625 -10.42570312 7.3403125 -11.16015625 7.515625 C-20.00942997 9.75474136 -26.14132098 12.97774525 -33 19 C-33.33 17.68 -33.66 16.36 -34 15 C-34.66 15 -35.32 15 -36 15 C-36.12375 14.030625 -36.2475 13.06125 -36.375 12.0625 C-36.58125 11.051875 -36.7875 10.04125 -37 9 C-37.66 8.67 -38.32 8.34 -39 8 C-26.07357386 1.44612062 -14.30865785 -0.53434822 0 0 Z " fill="#151515" transform="translate(393,181)"/>
<path d="M0 0 C2.99540063 1.99693375 4.49113042 3.45112821 5.625 6.90234375 C6.51862481 11.75212005 5.71072214 14.78332112 3 19 C2.34 19.66 1.68 20.32 1 21 C2.65 21.66 4.3 22.32 6 23 C5.67 23.66 5.34 24.32 5 25 C-8.05292784 22.55659479 -8.05292784 22.55659479 -12.8515625 17.875 C-15.14714952 14.12710282 -14.78274521 10.1932779 -14 6 C-11.05100692 -0.56821187 -6.7205066 -0.99820996 0 0 Z M-9.69921875 3.20703125 C-11.40564798 5.5591364 -11.4010348 7.05197686 -11.375 9.9375 C-11.38273437 10.79214844 -11.39046875 11.64679688 -11.3984375 12.52734375 C-10.92038341 15.49409122 -10.10714863 16.87343064 -8 19 C-3.38945023 19.62780609 -3.38945023 19.62780609 0.703125 17.78515625 C2.42771863 15.41124274 2.33652841 13.90735451 2.25 11 C2.23453125 10.13375 2.2190625 9.2675 2.203125 8.375 C2.0807181 5.85176221 2.0807181 5.85176221 1 3 C-2.36843161 1.31578419 -6.54742222 0.96816889 -9.69921875 3.20703125 Z " fill="#2C2C2C" transform="translate(477,283)"/>
<path d="M0 0 C0.99 0 1.98 0 3 0 C4.15208295 2.5598501 5.29679373 5.12258513 6.4375 7.6875 C6.76298828 8.40873047 7.08847656 9.12996094 7.42382812 9.87304688 C9.0592842 13.56546832 10.43489334 16.96466087 11 21 C9.68 20.67 8.36 20.34 7 20 C6.67 18.35 6.34 16.7 6 15 C2.7 15 -0.6 15 -4 15 C-4.33 16.98 -4.66 18.96 -5 21 C-5.99 21 -6.98 21 -8 21 C-7.41432875 16.59759475 -6.30527385 12.89276282 -4.5625 8.8125 C-3.91474609 7.27529297 -3.91474609 7.27529297 -3.25390625 5.70703125 C-2 3 -2 3 0 0 Z " fill="#191919" transform="translate(173,283)"/>
<path d="M0 0 C1.83984375 0.15234375 1.83984375 0.15234375 4 1 C5.37890625 3.44140625 5.37890625 3.44140625 6.5625 6.5625 C6.98015625 7.64144531 7.3978125 8.72039062 7.828125 9.83203125 C8.21484375 10.87746094 8.6015625 11.92289062 9 13 C9.32484375 13.84949219 9.6496875 14.69898438 9.984375 15.57421875 C10.67067939 17.37738642 11.33785748 19.18782047 12 21 C10.68 21 9.36 21 8 21 C7.67 19.02 7.34 17.04 7 15 C3.37 15 -0.26 15 -4 15 C-4.33 16.98 -4.66 18.96 -5 21 C-5.99 20.67 -6.98 20.34 -8 20 C-5.33333333 13.33333333 -2.66666667 6.66666667 0 0 Z " fill="#222222" transform="translate(283,283)"/>
<path d="M0 0 C0.99 0 1.98 0 3 0 C3 7.59 3 15.18 3 23 C-1.27945352 20.86027324 -2.44757293 19.39539465 -5.125 15.5625 C-5.80820312 14.59441406 -6.49140625 13.62632812 -7.1953125 12.62890625 C-8.47704093 10.76179968 -9.74376451 8.88435324 -11 7 C-11.33 11.95 -11.66 16.9 -12 22 C-12.66 22 -13.32 22 -14 22 C-14 15.07 -14 8.14 -14 1 C-13.01 1 -12.02 1 -11 1 C-9.13757867 3.29943043 -7.46495095 5.55786137 -5.8125 8 C-5.34908203 8.66773438 -4.88566406 9.33546875 -4.40820312 10.0234375 C-3.26314503 11.67609867 -2.13039735 13.33727669 -1 15 C-0.67 10.05 -0.34 5.1 0 0 Z " fill="#171717" transform="translate(320,282)"/>
<path d="M0 0 C10.93426208 -0.4806269 10.93426208 -0.4806269 15.1875 1.4375 C17.81078306 5.14627949 18.28072326 8.50062999 18 13 C16.50831386 17.10213689 15.64397687 18.57068209 12 21 C7.98500069 21.26874159 4.02862593 21.08663712 0 21 C0 14.07 0 7.14 0 0 Z M3 1 C3 7.27 3 13.54 3 20 C9.48176722 20.62299182 9.48176722 20.62299182 12.375 18.5 C14.6018652 15.07405353 15.08064994 12.056692 15 8 C13.97746157 4.08026933 13.43965202 3.29310134 10 1 C7.69 1 5.38 1 3 1 Z " fill="#060606" transform="translate(389,283)"/>
<path d="M0 0 C10.93426208 -0.4806269 10.93426208 -0.4806269 15.1875 1.4375 C17.81078306 5.14627949 18.28072326 8.50062999 18 13 C16.50831386 17.10213689 15.64397687 18.57068209 12 21 C7.98500069 21.26874159 4.02862593 21.08663712 0 21 C0 14.07 0 7.14 0 0 Z M3 1 C3 7.27 3 13.54 3 20 C9.48176722 20.62299182 9.48176722 20.62299182 12.375 18.5 C14.6018652 15.07405353 15.08064994 12.056692 15 8 C13.97746157 4.08026933 13.43965202 3.29310134 10 1 C7.69 1 5.38 1 3 1 Z " fill="#000000" transform="translate(419,283)"/>
<path d="M0 0 C0.99 0 1.98 0 3 0 C3.04898438 1.04800781 3.09796875 2.09601563 3.1484375 3.17578125 C3.22348143 4.55471354 3.29902857 5.9336185 3.375 7.3125 C3.4059375 8.00279297 3.436875 8.69308594 3.46875 9.40429688 C3.68124919 13.06990789 3.91933861 14.87900792 6 18 C9.58357241 18.25015873 9.58357241 18.25015873 13 18 C14.585869 14.828262 14.37866445 11.36486178 14.5625 7.875 C14.60568359 7.12089844 14.64886719 6.36679687 14.69335938 5.58984375 C14.7994832 3.72678112 14.90025001 1.86341476 15 0 C15.99 0 16.98 0 18 0 C18.13559675 2.56428515 18.23433188 5.12135216 18.3125 7.6875 C18.35439453 8.40873047 18.39628906 9.12996094 18.43945312 9.87304688 C18.53354779 13.99439319 18.32885152 15.56191458 15.765625 18.9765625 C12.99352751 21.00473552 11.80804144 21.70508543 8.4375 21.6875 C7.69371094 21.71199219 6.94992188 21.73648437 6.18359375 21.76171875 C2.59733842 20.51069945 1.66969126 18.31311771 0 15 C-0.28139654 12.21417426 -0.38863832 9.87643745 -0.25 7.125 C-0.23195312 6.43664062 -0.21390625 5.74828125 -0.1953125 5.0390625 C-0.14863748 3.3587619 -0.07690939 1.67918837 0 0 Z " fill="#141414" transform="translate(220,283)"/>
<path d="M0 0 C2.31 0 4.62 0 7 0 C7 5.28 7 10.56 7 16 C6.67 16 6.34 16 6 16 C6 13.69 6 11.38 6 9 C5.26394531 9.42152344 4.52789062 9.84304687 3.76953125 10.27734375 C2.79371094 10.82519531 1.81789063 11.37304688 0.8125 11.9375 C-0.15042969 12.48277344 -1.11335938 13.02804688 -2.10546875 13.58984375 C-4.85756289 14.93060756 -6.94959907 15.79389183 -10 16 C-12.8125 13.5625 -12.8125 13.5625 -15 11 C-14.67 10.34 -14.34 9.68 -14 9 C-13.484375 9.309375 -12.96875 9.61875 -12.4375 9.9375 C-9.33334577 11.29059287 -6.34884993 11.61359424 -3 12 C-2.01 8.04 -1.02 4.08 0 0 Z " fill="#1B1B1B" transform="translate(277,184)"/>
<path d="M0 0 C2.58889246 0.52059251 3.49810201 1.42999826 5.15625 3.43359375 C4.16625 4.09359375 3.17625 4.75359375 2.15625 5.43359375 C1.82625 4.77359375 1.49625 4.11359375 1.15625 3.43359375 C-1.15375 3.43359375 -3.46375 3.43359375 -5.84375 3.43359375 C-5.64280284 5.37749088 -5.64280284 5.37749088 -4.84375 7.43359375 C-3.06906753 8.70651765 -3.06906753 8.70651765 -0.90625 9.55859375 C1.68834987 10.69814578 3.12174847 11.39909222 5.15625 13.43359375 C4.90625 16.99609375 4.90625 16.99609375 4.15625 20.43359375 C1.8165831 21.6034272 0.32233473 21.59971785 -2.28125 21.62109375 C-3.45494141 21.64236328 -3.45494141 21.64236328 -4.65234375 21.6640625 C-6.84375 21.43359375 -6.84375 21.43359375 -9.84375 19.43359375 C-9.34875 17.94859375 -9.34875 17.94859375 -8.84375 16.43359375 C-8.18375 16.43359375 -7.52375 16.43359375 -6.84375 16.43359375 C-6.51375 17.09359375 -6.18375 17.75359375 -5.84375 18.43359375 C-3.53375 18.43359375 -1.22375 18.43359375 1.15625 18.43359375 C1.28440365 16.04832045 1.28440365 16.04832045 0.15625 13.43359375 C-1.6456286 12.32578528 -1.6456286 12.32578528 -3.78125 11.43359375 C-6.72146742 10.12212986 -7.67702434 9.68059473 -9.53125 6.93359375 C-9.84375 4.43359375 -9.84375 4.43359375 -9.03125 2.12109375 C-6.02939445 -0.19462339 -3.70314062 -0.0061719 0 0 Z " fill="#171717" transform="translate(357.84375,282.56640625)"/>
<path d="M0 0 C2.05859375 0.23828125 2.05859375 0.23828125 4.05859375 1.23828125 C3.72859375 2.55828125 3.39859375 3.87828125 3.05859375 5.23828125 C2.39859375 4.90828125 1.73859375 4.57828125 1.05859375 4.23828125 C1.05859375 3.57828125 1.05859375 2.91828125 1.05859375 2.23828125 C-1.25140625 2.56828125 -3.56140625 2.89828125 -5.94140625 3.23828125 C-5.78359023 5.17342949 -5.78359023 5.17342949 -4.94140625 7.23828125 C-2.70258924 8.68059605 -0.39544031 9.69665503 2.02734375 10.796875 C4.05859375 12.23828125 4.05859375 12.23828125 4.90234375 14.7109375 C5.05859375 17.23828125 5.05859375 17.23828125 4.05859375 20.23828125 C1.71892685 21.4081147 0.22467848 21.40440535 -2.37890625 21.42578125 C-3.55259766 21.44705078 -3.55259766 21.44705078 -4.75 21.46875 C-6.94140625 21.23828125 -6.94140625 21.23828125 -9.94140625 19.23828125 C-9.44640625 17.75328125 -9.44640625 17.75328125 -8.94140625 16.23828125 C-8.28140625 16.23828125 -7.62140625 16.23828125 -6.94140625 16.23828125 C-6.61140625 16.89828125 -6.28140625 17.55828125 -5.94140625 18.23828125 C-3.63140625 18.23828125 -1.32140625 18.23828125 1.05859375 18.23828125 C1.26993905 15.84705175 1.26993905 15.84705175 0.05859375 13.23828125 C-2.01246739 12.12750298 -2.01246739 12.12750298 -4.44140625 11.23828125 C-8.80251736 9.51605903 -8.80251736 9.51605903 -10.19140625 6.73828125 C-9.94140625 4.23828125 -9.94140625 4.23828125 -9.06640625 1.92578125 C-6.08871224 -0.43885811 -3.70426787 -0.11556829 0 0 Z " fill="#0D0D0D" transform="translate(149.94140625,282.76171875)"/>
<path d="M0 0 C6.6 0.99 13.2 1.98 20 3 C19.01 3.99 18.02 4.98 17 6 C17.66 6.66 18.32 7.32 19 8 C9.72755227 8.33786247 1.85912168 8.09424624 -7 5 C-4.35261084 3.5393715 -3.10551666 3 0 3 C0 2.01 0 1.02 0 0 Z " fill="#101010" transform="translate(212,390)"/>
<path d="M0 0 C1.89355469 0.27514648 1.89355469 0.27514648 4 1 C5.28501632 3.71444961 6.30329 6.23444538 7.25 9.0625 C7.518125 9.82111328 7.78625 10.57972656 8.0625 11.36132812 C8.72271967 13.23588042 9.36325109 15.11734572 10 17 C10.39832031 15.85660156 10.79664063 14.71320313 11.20703125 13.53515625 C11.74157799 12.04405219 12.27676763 10.55317849 12.8125 9.0625 C13.07353516 8.30775391 13.33457031 7.55300781 13.60351562 6.77539062 C14.31510087 4.81633495 15.15061557 2.90336512 16 1 C16.99 0.67 17.98 0.34 19 0 C18.26951699 4.68803656 16.63363115 8.90885555 14.9375 13.3125 C14.65583984 14.05306641 14.37417969 14.79363281 14.08398438 15.55664062 C13.39281425 17.37242655 12.69688311 19.18639899 12 21 C10.68 21 9.36 21 8 21 C7.67386719 20.13117188 7.34773438 19.26234375 7.01171875 18.3671875 C6.57472656 17.21476562 6.13773438 16.06234375 5.6875 14.875 C5.25824219 13.73804688 4.82898438 12.60109375 4.38671875 11.4296875 C3.0465528 7.97845631 3.0465528 7.97845631 1.33203125 4.6953125 C0 2 0 2 0 0 Z " fill="#131313" transform="translate(249,283)"/>
<path d="M0 0 C1.66666667 1.66666667 3.33333333 3.33333333 5 5 C5.928125 5.886875 6.85625 6.77375 7.8125 7.6875 C10 10 10 10 10 12 C10.66 12.33 11.32 12.66 12 13 C8.87352105 14.85272826 6.62412276 15.61875267 3 15 C-0.32128506 12.49058462 -1.84098956 11.11307306 -2.4375 6.9375 C-2.0259149 4.17400001 -1.45355985 2.36203476 0 0 Z " fill="#0F0F0F" transform="translate(358,241)"/>
<path d="M0 0 C11.55 0 23.1 0 35 0 C35 0.33 35 0.66 35 1 C26.75 1 18.5 1 10 1 C10.66 2.32 11.32 3.64 12 5 C11.54625 5.4125 11.0925 5.825 10.625 6.25 C8.93559781 8.0693562 8.0587506 9.77202047 7 12 C6.0165504 10.56542672 5.03839079 9.12722594 4.0625 7.6875 C3.51722656 6.88699219 2.97195313 6.08648437 2.41015625 5.26171875 C1 3 1 3 0 0 Z " fill="#313131" transform="translate(418,323)"/>
<path d="M0 0 C4.62 0 9.24 0 14 0 C14 0.33 14 0.66 14 1 C10.37 1 6.74 1 3 1 C3 3.64 3 6.28 3 9 C6.3 9 9.6 9 13 9 C13 9.66 13 10.32 13 11 C9.7 11 6.4 11 3 11 C3 14.3 3 17.6 3 21 C2.01 21 1.02 21 0 21 C0 14.07 0 7.14 0 0 Z " fill="#070707" transform="translate(195,283)"/>
<path d="M0 0 C0.66 0.33 1.32 0.66 2 1 C1.360625 1.433125 0.72125 1.86625 0.0625 2.3125 C-2.26746003 3.91239177 -2.26746003 3.91239177 -3 7 C-2.34 7.33 -1.68 7.66 -1 8 C-8.92 8 -16.84 8 -25 8 C-25 7.67 -25 7.34 -25 7 C-23.948125 6.87625 -22.89625 6.7525 -21.8125 6.625 C-18.09963555 6.15746422 -18.09963555 6.15746422 -15.1875 4.875 C-14.465625 4.58625 -13.74375 4.2975 -13 4 C-12.34 4.33 -11.68 4.66 -11 5 C-10.34 4.67 -9.68 4.34 -9 4 C-12.63 3.67 -16.26 3.34 -20 3 C-20 2.67 -20 2.34 -20 2 C-18.72382813 1.93941406 -17.44765625 1.87882812 -16.1328125 1.81640625 C-14.46352984 1.73200432 -12.79425963 1.64735614 -11.125 1.5625 C-10.28324219 1.52318359 -9.44148438 1.48386719 -8.57421875 1.44335938 C-7.76855469 1.40146484 -6.96289062 1.35957031 -6.1328125 1.31640625 C-5.38918457 1.27974854 -4.64555664 1.24309082 -3.87939453 1.20532227 C-1.91135688 1.10044135 -1.91135688 1.10044135 0 0 Z " fill="#191919" transform="translate(405,390)"/>
<path d="M0 0 C1.83984375 0.15234375 1.83984375 0.15234375 4 1 C5.37890625 3.44140625 5.37890625 3.44140625 6.5625 6.5625 C6.98015625 7.64144531 7.3978125 8.72039062 7.828125 9.83203125 C8.21484375 10.87746094 8.6015625 11.92289062 9 13 C9.48726563 14.27423828 9.48726563 14.27423828 9.984375 15.57421875 C10.67067939 17.37738642 11.33785748 19.18782047 12 21 C10.68 21 9.36 21 8 21 C7.67 19.02 7.34 17.04 7 15 C4.69 15 2.38 15 0 15 C0 14.67 0 14.34 0 14 C1.65 14 3.3 14 5 14 C4.01 11.03 3.02 8.06 2 5 C1.01 5.66 0.02 6.32 -1 7 C-0.67 4.69 -0.34 2.38 0 0 Z " fill="#151515" transform="translate(283,283)"/>
<path d="M0 0 C0.66 0 1.32 0 2 0 C2.64834654 1.269553 3.29357815 2.54069706 3.9375 3.8125 C4.29714844 4.52019531 4.65679687 5.22789062 5.02734375 5.95703125 C6 8 6 8 7 11 C7.33 7.37 7.66 3.74 8 0 C8.66 0 9.32 0 10 0 C10 5.94 10 11.88 10 18 C9.34 18 8.68 18 8 18 C7.18501438 16.3970947 6.37310073 14.79262722 5.5625 13.1875 C5.11003906 12.29417969 4.65757812 11.40085937 4.19140625 10.48046875 C3 8 3 8 2 5 C1.67 9.29 1.34 13.58 1 18 C0.67 18 0.34 18 0 18 C0 12.06 0 6.12 0 0 Z " fill="#6E6E6E" transform="translate(325,430)"/>
<path d="M0 0 C2.91517292 1.07401108 4.77810176 1.77810176 7 4 C8.17572078 8.42000292 8.29912098 12.08601922 6.875 16.4375 C4.77662852 19.30527436 3.38776726 20.08438723 0 21 C0 20.34 0 19.68 0 19 C0.474375 18.62875 0.94875 18.2575 1.4375 17.875 C3.8553555 14.9735734 3.90774748 11.64752278 4 8 C3.64933615 5.14377513 3.64933615 5.14377513 3 3 C2.01 2.67 1.02 2.34 0 2 C0 1.34 0 0.68 0 0 Z " fill="#1A1A1A" transform="translate(399,283)"/>
<path d="M0 0 C2.91517292 1.07401108 4.77810176 1.77810176 7 4 C8.17572078 8.42000292 8.29912098 12.08601922 6.875 16.4375 C4.77662852 19.30527436 3.38776726 20.08438723 0 21 C0 20.34 0 19.68 0 19 C0.474375 18.62875 0.94875 18.2575 1.4375 17.875 C3.8553555 14.9735734 3.90774748 11.64752278 4 8 C3.64933615 5.14377513 3.64933615 5.14377513 3 3 C2.01 2.67 1.02 2.34 0 2 C0 1.34 0 0.68 0 0 Z " fill="#0C0C0C" transform="translate(429,283)"/>
<path d="M0 0 C0 0.33 0 0.66 0 1 C-4.62 1.33 -9.24 1.66 -14 2 C-14.33 3.32 -14.66 4.64 -15 6 C-13.02 6 -11.04 6 -9 6 C-9 6.33 -9 6.66 -9 7 C-12.96 7.99 -16.92 8.98 -21 10 C-21.33 8.02 -21.66 6.04 -22 4 C-15.28528949 -1.24074967 -8.0913137 -0.37488712 0 0 Z " fill="#2D2D2D" transform="translate(393,181)"/>
<path d="M0 0 C0.99 0 1.98 0 3 0 C3 6.93 3 13.86 3 21 C2.01 21 1.02 21 0 21 C0 14.07 0 7.14 0 0 Z " fill="#060606" transform="translate(374,283)"/>
<path d="M0 0 C0.99 0 1.98 0 3 0 C3 6.93 3 13.86 3 21 C2.01 21 1.02 21 0 21 C0 14.07 0 7.14 0 0 Z " fill="#0A0A0A" transform="translate(448,283)"/>
<path d="M0 0 C0.66 0 1.32 0 2 0 C1.67 0.99 1.34 1.98 1 3 C0.26957383 9.63172315 0.26957383 9.63172315 2.8125 15.5 C4.5328315 16.67965588 6.26439644 17.84293096 8 19 C4.14516221 19.44823695 2.41830531 19.27280781 -0.875 17.125 C-3.4766813 13.29899808 -3.52443974 10.92017421 -3.46875 6.40234375 C-2.91399831 3.55924136 -1.97590936 2.09698224 0 0 Z " fill="#171717" transform="translate(466,285)"/>
<path d="M0 0 C0.66 0 1.32 0 2 0 C2.99 3.96 3.98 7.92 5 12 C5.33 12 5.66 12 6 12 C6.99 8.04 7.98 4.08 9 0 C9.66 0.33 10.32 0.66 11 1 C9.68 6.61 8.36 12.22 7 18 C6.01 18 5.02 18 4 18 C3.32873871 15.5636811 2.66283646 13.12611117 2 10.6875 C1.71382813 9.65206055 1.71382813 9.65206055 1.421875 8.59570312 C0.62283816 5.64212051 0 3.07440781 0 0 Z " fill="#545454" transform="translate(311,430)"/>
<path d="M0 0 C2.05859375 0.23828125 2.05859375 0.23828125 4.05859375 1.23828125 C3.72859375 2.55828125 3.39859375 3.87828125 3.05859375 5.23828125 C2.39859375 4.90828125 1.73859375 4.57828125 1.05859375 4.23828125 C1.05859375 3.57828125 1.05859375 2.91828125 1.05859375 2.23828125 C-1.25140625 2.56828125 -3.56140625 2.89828125 -5.94140625 3.23828125 C-5.79703125 3.81578125 -5.65265625 4.39328125 -5.50390625 4.98828125 C-4.98307292 7.07161458 -4.46223958 9.15494792 -3.94140625 11.23828125 C-6.37890625 10.55078125 -6.37890625 10.55078125 -8.94140625 9.23828125 C-10.17940641 6.29803088 -10.19368661 4.90502221 -9.06640625 1.92578125 C-6.08871224 -0.43885811 -3.70426787 -0.11556829 0 0 Z " fill="#151515" transform="translate(149.94140625,282.76171875)"/>
<path d="M0 0 C0.66 0 1.32 0 2 0 C1.44894091 3.9492568 0.61064629 7.34920174 -1 11 C1.97 11 4.94 11 8 11 C8 11.33 8 11.66 8 12 C4.7 12 1.4 12 -2 12 C-2.33 13.98 -2.66 15.96 -3 18 C-3.99 18 -4.98 18 -6 18 C-5.41347648 13.51006131 -4.2356462 9.77456816 -2.4375 5.625 C-1.98246094 4.56539063 -1.52742187 3.50578125 -1.05859375 2.4140625 C-0.70925781 1.61742187 -0.35992187 0.82078125 0 0 Z " fill="#131313" transform="translate(171,286)"/>
<path d="M0 0 C0.33 0 0.66 0 1 0 C1 1.98 1 3.96 1 6 C1.66 6.33 2.32 6.66 3 7 C1.84826645 9.46800047 0.95216435 11.04783565 -1 13 C1.475 13.99 1.475 13.99 4 15 C3.67 15.66 3.34 16.32 3 17 C-0.96 16.01 -4.92 15.02 -9 14 C-8.67 13.01 -8.34 12.02 -8 11 C-5 9.875 -5 9.875 -2 9 C-0.50256881 7.50256881 -0.66797307 6.01175761 -0.4375 3.9375 C-0.293125 2.638125 -0.14875 1.33875 0 0 Z " fill="#3F3F3F" transform="translate(479,291)"/>
<path d="M0 0 C0.99 0 1.98 0 3 0 C3.02690844 2.62506802 3.04679404 5.24986173 3.0625 7.875 C3.07087891 8.62136719 3.07925781 9.36773437 3.08789062 10.13671875 C3.11328125 15.7734375 3.11328125 15.7734375 2 18 C1.34 18 0.68 18 0 18 C0 12.06 0 6.12 0 0 Z " fill="#030303" transform="translate(235,283)"/>
<path d="M0 0 C1.98 0 3.96 0 6 0 C5.01 0.495 5.01 0.495 4 1 C4.33 2.65 4.66 4.3 5 6 C2.03 8.475 2.03 8.475 -1 11 C-1.66 10.67 -2.32 10.34 -3 10 C-2.690625 9.0925 -2.38125 8.185 -2.0625 7.25 C-1.2727737 4.83436662 -0.57050703 2.47219715 0 0 Z " fill="#121212" transform="translate(277,184)"/>
<path d="M0 0 C2 1 2 1 3.125 3.375 C4 6 4 6 4 9 C1.69 9 -0.62 9 -3 9 C-2.01 6.03 -1.02 3.06 0 0 Z " fill="#E4E4E4" transform="translate(284,287)"/>
<path d="M0 0 C3.31012244 3.31012244 3.50351065 4.53159589 4 9 C1.69 9 -0.62 9 -3 9 C-2.01 6.03 -1.02 3.06 0 0 Z " fill="#E9E9E9" transform="translate(173,287)"/>
<path d="M0 0 C0.66 0.33 1.32 0.66 2 1 C1.773125 1.763125 1.54625 2.52625 1.3125 3.3125 C1.209375 4.199375 1.10625 5.08625 1 6 C1.9793879 7.02019573 2.97895449 8.02149805 4 9 C3.6875 11.1875 3.6875 11.1875 3 13 C2.34 11.68 1.68 10.36 1 9 C0.34 9 -0.32 9 -1 9 C-1.12375 8.030625 -1.2475 7.06125 -1.375 6.0625 C-1.58125 5.051875 -1.7875 4.04125 -2 3 C-2.66 2.67 -3.32 2.34 -4 2 C-2.125 0.9375 -2.125 0.9375 0 0 Z " fill="#181818" transform="translate(358,187)"/>
<path d="M0 0 C0.66 0 1.32 0 2 0 C1.34309381 3.78239671 0.279869 7.21841526 -1.0625 10.8125 C-1.42472656 11.78832031 -1.78695313 12.76414062 -2.16015625 13.76953125 C-2.43730469 14.50558594 -2.71445312 15.24164063 -3 16 C-3.66 15.34 -4.32 14.68 -5 14 C-4.5551397 10.75181366 -3.17005617 7.77175061 -1.9375 4.75 C-1.57527344 3.85796875 -1.21304687 2.9659375 -0.83984375 2.046875 C-0.56269531 1.37140625 -0.28554688 0.6959375 0 0 Z " fill="#1C1C1C" transform="translate(266,283)"/>
<path d="M0 0 C0.66 0 1.32 0 2 0 C2.33 0.66 2.66 1.32 3 2 C6.3 2 9.6 2 13 2 C13 2.66 13 3.32 13 4 C10.6603331 5.16983345 9.16608473 5.1661241 6.5625 5.1875 C5.38880859 5.20876953 5.38880859 5.20876953 4.19140625 5.23046875 C2 5 2 5 -1 3 C-0.67 2.01 -0.34 1.02 0 0 Z " fill="#2E2E2E" transform="translate(349,299)"/>
<path d="M0 0 C1.875 0.125 1.875 0.125 4 1 C5.25 4.0625 5.25 4.0625 6 7 C5.01 7.33 4.02 7.66 3 8 C2.67 7.01 2.34 6.02 2 5 C1.01 5.66 0.02 6.32 -1 7 C-0.67 4.69 -0.34 2.38 0 0 Z " fill="#0D0D0D" transform="translate(283,283)"/>
<path d="M0 0 C1.32 0 2.64 0 4 0 C4.1875 2.375 4.1875 2.375 4 5 C1 7 1 7 -1.125 6.8125 C-1.74375 6.544375 -2.3625 6.27625 -3 6 C-3.33 5.01 -3.66 4.02 -4 3 C-3.01 2.67 -2.02 2.34 -1 2 C-0.67 2.33 -0.34 2.66 0 3 C0 2.01 0 1.02 0 0 Z " fill="#060606" transform="translate(368,186)"/>
<path d="M0 0 C1.98 0 3.96 0 6 0 C5.67 1.65 5.34 3.3 5 5 C3.02 5 1.04 5 -1 5 C-0.67 3.35 -0.34 1.7 0 0 Z " fill="#030303" transform="translate(379,182)"/>
<path d="M0 0 C0.33 0.66 0.66 1.32 1 2 C4.3 2 7.6 2 11 2 C11 2.66 11 3.32 11 4 C7.7 4 4.4 4 1 4 C0.67 4.66 0.34 5.32 0 6 C-0.38218767 4.34385343 -0.71395102 2.67542976 -1 1 C-0.67 0.67 -0.34 0.34 0 0 Z " fill="#191919" transform="translate(197,290)"/>
<path d="M0 0 C2.31 0.33 4.62 0.66 7 1 C6.071875 1.4021875 6.071875 1.4021875 5.125 1.8125 C2.7004767 2.95556848 2.7004767 2.95556848 1 6 C-1.64 5.67 -4.28 5.34 -7 5 C-4.35261084 3.5393715 -3.10551666 3 0 3 C0 2.01 0 1.02 0 0 Z " fill="#262626" transform="translate(212,390)"/>
<path d="M0 0 C2.31 0 4.62 0 7 0 C6.67 1.32 6.34 2.64 6 4 C6 3.01 6 2.02 6 1 C5.34 1 4.68 1 4 1 C3.896875 1.598125 3.79375 2.19625 3.6875 2.8125 C2.91123545 5.28243264 1.92911079 6.32251235 0 8 C0 5.36 0 2.72 0 0 Z " fill="#1D1D1D" transform="translate(331,325)"/>
<path d="M0 0 C0.66 0 1.32 0 2 0 C3.0625 1.8125 3.0625 1.8125 4 4 C3.67 4.99 3.34 5.98 3 7 C2.67 6.34 2.34 5.68 2 5 C1.67 9.29 1.34 13.58 1 18 C0.67 18 0.34 18 0 18 C0 12.06 0 6.12 0 0 Z " fill="#424242" transform="translate(325,430)"/>
<path d="M0 0 C0.33 1.32 0.66 2.64 1 4 C0.360625 4.28875 -0.27875 4.5775 -0.9375 4.875 C-3.15206079 5.82823451 -3.15206079 5.82823451 -4 8 C-4.99 8.33 -5.98 8.66 -7 9 C-7.33 8.34 -7.66 7.68 -8 7 C-5.36 4.69 -2.72 2.38 0 0 Z " fill="#272727" transform="translate(421,379)"/>
<path d="M0 0 C2.18975773 3.28463659 2.99806563 6.20696275 4 10 C2.68 9.67 1.36 9.34 0 9 C-0.84454356 5.62182575 -1.10844919 3.32534757 0 0 Z " fill="#1F1F1F" transform="translate(180,294)"/>
<path d="M0 0 C0.33 0 0.66 0 1 0 C1 1.98 1 3.96 1 6 C1.66 6.33 2.32 6.66 3 7 C1.95125002 9.62187494 1.35068687 10.79371361 -1.125 12.25 C-1.74375 12.4975 -2.3625 12.745 -3 13 C-2.125 9.125 -2.125 9.125 -1 8 C-0.76924918 6.65252916 -0.58846937 5.29622435 -0.4375 3.9375 C-0.2209375 1.9884375 -0.2209375 1.9884375 0 0 Z " fill="#353535" transform="translate(479,291)"/>
<path d="M0 0 C0.66 0 1.32 0 2 0 C2 1.65 2 3.3 2 5 C4.31 5 6.62 5 9 5 C9 5.33 9 5.66 9 6 C5.7 6 2.4 6 -1 6 C-1 1 -1 1 0 0 Z " fill="#000000" transform="translate(390,298)"/>
<path d="M0 0 C0.66 0 1.32 0 2 0 C1.01 3.3 0.02 6.6 -1 10 C-1.66 10 -2.32 10 -3 10 C-3.2295711 6.63295715 -3.33943529 4.58629732 -1.625 1.625 C-1.08875 1.08875 -0.5525 0.5525 0 0 Z " fill="#090909" transform="translate(466,285)"/>
<path d="M0 0 C1.8125 0.9375 1.8125 0.9375 2.8125 3.9375 C-0.1575 3.9375 -3.1275 3.9375 -6.1875 3.9375 C-2.77921598 -0.07940617 -2.77921598 -0.07940617 0 0 Z " fill="#D8D8D8" transform="translate(225.1875,388.0625)"/>
<path d="M0 0 C3.875 0.875 3.875 0.875 5 2 C5.04063832 3.66617115 5.042721 5.33388095 5 7 C4.01 7 3.02 7 2 7 C1.34 4.69 0.68 2.38 0 0 Z " fill="#0B0B0B" transform="translate(358,294)"/>
<path d="M0 0 C0.99 0 1.98 0 3 0 C3.33 2.31 3.66 4.62 4 7 C3.01 7.33 2.02 7.66 1 8 C0.67 5.36 0.34 2.72 0 0 Z " fill="#161616" transform="translate(479,289)"/>
<path d="M0 0 C0.33 0.99 0.66 1.98 1 3 C1.99 3 2.98 3 4 3 C3.6875 4.875 3.6875 4.875 3 7 C2.01 7.66 1.02 8.32 0 9 C0 6.03 0 3.06 0 0 Z " fill="#1E1E1E" transform="translate(330,378)"/>
<path d="M0 0 C0.66 0 1.32 0 2 0 C2.33 0.66 2.66 1.32 3 2 C6.02934491 2.65772428 6.02934491 2.65772428 9 3 C9 3.33 9 3.66 9 4 C2.375 5.25 2.375 5.25 -1 3 C-0.67 2.01 -0.34 1.02 0 0 Z " fill="#383838" transform="translate(141,299)"/>
<path d="M0 0 C0.33 0.66 0.66 1.32 1 2 C1.66 2.33 2.32 2.66 3 3 C1.37660195 4.70884005 -0.29319053 6.37446717 -2 8 C-2.66 8 -3.32 8 -4 8 C-4 7.34 -4 6.68 -4 6 C-3 5 -2 4 -1 3 C-0.67 2.01 -0.34 1.02 0 0 Z " fill="#1A1A1A" transform="translate(403,296)"/>
<path d="M0 0 C0.99 0 1.98 0 3 0 C3 1.98 3 3.96 3 6 C2.01 6.33 1.02 6.66 0 7 C0 4.69 0 2.38 0 0 Z " fill="#000000" transform="translate(374,283)"/>
<path d="M0 0 C0.66 0.66 1.32 1.32 2 2 C1.9375 4 1.9375 4 1 6 C-1.5625 7.25 -1.5625 7.25 -4 8 C-4 7.34 -4 6.68 -4 6 C-3 5 -2 4 -1 3 C-0.67 2.01 -0.34 1.02 0 0 Z " fill="#1B1B1B" transform="translate(433,296)"/>
<path d="M0 0 C0.99 0.33 1.98 0.66 3 1 C2.67 2.98 2.34 4.96 2 7 C1.34 7 0.68 7 0 7 C0 4.69 0 2.38 0 0 Z " fill="#030303" transform="translate(404,291)"/>
<path d="M0 0 C0.598125 0.268125 1.19625 0.53625 1.8125 0.8125 C2.1425 1.8025 2.4725 2.7925 2.8125 3.8125 C1.8225 4.1425 0.8325 4.4725 -0.1875 4.8125 C-0.5175 4.1525 -0.8475 3.4925 -1.1875 2.8125 C-3.71483235 2.15694881 -3.71483235 2.15694881 -6.1875 1.8125 C-3.93528616 0.44508445 -2.66192242 -0.22816478 0 0 Z " fill="#393939" transform="translate(360.1875,283.1875)"/>
<path d="M0 0 C-0.33 1.32 -0.66 2.64 -1 4 C-1.66 3.67 -2.32 3.34 -3 3 C-3 2.34 -3 1.68 -3 1 C-4.65 1 -6.3 1 -8 1 C-4.93251126 -0.86240388 -3.40254489 -1.2151946 0 0 Z " fill="#393939" transform="translate(154,284)"/>
</svg>
